<svg viewBox="0 0 35 35" fill="none" xmlns="http://www.w3.org/2000/svg" width="35px" color="primary" class="sc-bdnxRM bAJGeO"><path d="M17.5 34.5C11.0699 34.5 6.86251 33.1459 4.24759 30.4217C1.62845 27.6931 0.5 23.4802 0.5 17.5C0.5 11.0699 1.85415 6.86251 4.57834 4.24759C7.30692 1.62844 11.5198 0.5 17.5 0.5C23.9301 0.5 28.1375 1.85415 30.7524 4.57834C33.3716 7.30692 34.5 11.5198 34.5 17.5C34.5 23.9301 33.1459 28.1375 30.4217 30.7524C27.6931 33.3716 23.4802 34.5 17.5 34.5Z" fill="#FFFFFF" stroke="#E9EBF5"></path><path d="M16.7708 10.9375V21.5731L12.9114 17.7137L11.8803 18.7447L17.5 24.3644L23.1197 18.7447L22.0886 17.7137L18.2292 21.5731V10.9375H16.7708Z" fill="#A5A8BE"></path></svg>