<svg width="1466" height="1091" viewBox="0 0 1466 1091" fill="none" xmlns="http://www.w3.org/2000/svg">
<g clip-path="url(#clip0_184_2)">
<path d="M1466.08 1090.64H0C68.87 1058.17 118.31 1026.86 144 1006C144 1006 184 973.55 218.18 921.56C219.946 918.82 221.478 915.937 222.76 912.94C223.18 911.94 223.57 910.94 223.94 909.8C228.68 895.54 224.05 887.13 229.22 869.71C230.12 866.71 230.98 864.54 231.77 862.55C236.89 849.55 249.37 825.1 276.77 811.64C283.299 808.459 290.18 806.056 297.27 804.48C296.91 793.76 295.34 784.63 304.04 772.24C314.73 756.98 325.57 758.76 342.63 743.24C350.009 736.463 356.216 728.512 361 719.71C354.59 678.6 363.59 651.71 374.3 633.98C392.08 604.57 410.74 606.71 429.79 570.98C447.79 537.13 440.87 516.86 450.79 494.98C453.869 488.651 457.81 482.778 462.5 477.53C480.36 456.99 494.91 460.62 519.28 442.12C529.76 434.17 537.22 426.45 550.35 408.98C554.01 404.11 556.62 400.2 557.75 398.51C568.28 382.87 574.68 370.23 582.18 355.77C593.64 333.67 596.28 329.3 598.5 325.09C598.69 325.15 598.89 325.19 599.08 325.24C600 322.92 600.93 320.61 601.85 318.29C605.908 309.564 609.47 300.617 612.52 291.49L613.42 289.23L613.29 289.17C613.294 289.11 613.294 289.05 613.29 288.99L613.53 289.07C614.58 286.18 615.61 283.01 616.53 279.57C617.37 276.46 618.02 273.5 618.53 270.73C611.9 267.97 605.927 263.844 601 258.62C605.72 252.52 614.4 246.92 626.11 242.14C650.77 232.06 688.83 225.6 731.54 225.6C777.36 225.6 817.82 233.04 842.13 244.39C847.61 278.6 857.21 303.52 865.07 320.01C869.07 328.34 868.48 326.01 883.9 355.72C891.4 370.18 897.8 382.82 908.33 398.46C909.46 400.15 912.07 404.06 915.73 408.93C928.86 426.4 936.32 434.12 946.8 442.07C971.17 460.57 985.72 456.94 1003.58 477.48C1008.27 482.728 1012.21 488.601 1015.29 494.93C1025.23 516.83 1018.29 537.1 1036.29 570.93C1055.29 606.69 1074 604.55 1091.78 633.93C1102.49 651.66 1111.49 678.55 1105.08 719.66C1109.9 728.455 1116.13 736.392 1123.54 743.15C1140.6 758.71 1151.44 756.93 1162.13 772.15C1170.83 784.54 1169.26 793.67 1168.9 804.39C1175.99 805.966 1182.86 808.369 1189.39 811.55C1216.75 825.01 1229.23 849.47 1234.39 862.46C1235.18 864.46 1236.03 866.58 1236.94 869.62C1242.11 887.04 1237.48 895.45 1242.22 909.71C1242.59 910.84 1242.98 911.87 1243.39 912.85C1244.68 915.846 1246.21 918.729 1247.98 921.47C1282.2 973.47 1322.16 1005.91 1322.16 1005.91C1347.78 1026.86 1397.21 1058.17 1466.08 1090.64Z" fill="#FEFDF9"/>
<path d="M917.94 269.37C917.79 268.12 917.65 266.87 917.5 265.62C917.553 264.143 917.208 262.678 916.5 261.38C916.293 260.732 916.004 260.114 915.64 259.54C915.094 255.068 913.414 250.81 910.76 247.17C910.376 246.659 909.959 246.175 909.51 245.72C906.69 238.53 899.15 233.72 893.51 228.92C892.634 228.181 891.666 227.559 890.63 227.07C889.605 225.614 888.229 224.441 886.63 223.66C873.796 216.935 860.189 211.803 846.11 208.38H845.92C845.254 203.917 844.251 199.511 842.92 195.2C839.373 182.593 835.82 169.987 832.26 157.38C830.39 150.77 824.43 148.75 819.26 149.97C817.103 146.086 814.684 142.354 812.02 138.8C802.21 125.8 789.84 117.47 774.76 111.58C759.98 105.81 743.76 99.77 727.64 100.8C712.89 101.75 699.28 107.16 686 113.22C684.387 112.167 682.505 111.598 680.578 111.582C678.651 111.566 676.761 112.103 675.13 113.13C641.135 132.856 615.365 164.145 602.52 201.29C602.102 202.587 601.959 203.957 602.102 205.313C602.245 206.668 602.67 207.979 603.35 209.16C597.57 212.927 591.787 216.693 586 220.46C581.087 223.373 576.17 226.277 571.25 229.17C570.8 229.439 570.372 229.743 569.97 230.08C567.618 230.759 565.61 232.302 564.35 234.4C563.402 234.892 562.565 235.573 561.89 236.4C553.56 247 545.76 257.87 545.84 272C545.841 272.718 545.912 273.435 546.05 274.14C545.727 275.929 545.843 277.769 546.391 279.503C546.938 281.236 547.898 282.811 549.19 284.09L549.31 285.03C549.239 286.502 549.564 287.966 550.25 289.27C550.697 290.625 551.481 291.843 552.53 292.81C552.803 293.098 553.093 293.368 553.4 293.62C553.869 295.694 554.961 297.575 556.53 299.01L562.91 305.15C563.978 306.185 565.243 306.994 566.63 307.53C567.181 308.073 567.765 308.58 568.38 309.05L572.99 312.53C573.309 312.758 573.643 312.965 573.99 313.15C576.677 315.218 579.508 317.092 582.46 318.76C584.133 319.663 585.999 320.15 587.9 320.18C588.766 321.931 590.196 323.34 591.96 324.18L606.51 330.87C616.83 335.62 625.71 326.31 621.71 316.22C623.71 317.53 625.64 318.83 627.63 320.09C636.92 325.99 647.86 314.14 643.26 305.66C643.575 305.076 643.842 304.467 644.06 303.84L660.62 257.19L670.94 248.68C672.47 251.519 675.028 253.665 678.09 254.68L675.27 265C671.97 277.2 688.76 284 695.38 273.47L713.06 245.41C714.768 244.476 716.207 243.119 717.24 241.47C717.7 240.75 718.17 240.03 718.63 239.3C719.768 240.927 721.267 242.268 723.01 243.22L717.27 259.31C715.45 264.41 718.91 270.39 723.64 272.31C729.09 274.5 734 272.31 737.38 267.81C744.105 258.795 750.35 249.432 756.09 239.76C757.751 240.77 759.679 241.254 761.62 241.15C774.56 240.537 787.47 239.537 800.35 238.15L802.96 237.84C800.96 249.89 809.96 260.91 819.89 268.17C825.41 272.076 830.567 276.471 835.3 281.3C839.48 285.7 842.62 291.11 846.64 295.61C847.12 298.49 847.597 301.37 848.07 304.25C848.364 305.584 848.94 306.84 849.759 307.934C850.578 309.027 851.622 309.933 852.82 310.59C852.673 311.321 852.6 312.065 852.6 312.81C852.6 318.17 857.67 324.57 863.6 323.81C874.6 322.4 884.83 318.33 892.88 311.03C898.7 307.44 904.16 303.25 907.51 297.24C908.417 296.46 909.19 295.538 909.8 294.51L910.18 293.76C910.332 293.519 910.469 293.268 910.59 293.01C911.501 291.922 912.142 290.633 912.46 289.25L912.85 287.48C913.84 286.093 914.641 284.579 915.23 282.98C916.672 280.549 917.227 277.694 916.8 274.9C916.89 274.531 916.96 274.157 917.01 273.78C917.626 272.391 917.943 270.889 917.94 269.37ZM751.32 202C750.93 201.77 750.53 201.58 750.12 201.39H751.59L751.32 202Z" fill="#FEFDF9"/>
<path d="M624.1 243.85C622.56 253.53 620.7 262.47 618.64 270.68C617 277.22 615.23 283.3 613.4 288.94" stroke="black" stroke-width="2" stroke-miterlimit="10"/>
<path d="M613.35 289.12C613.09 289.9 612.84 290.68 612.58 291.44" stroke="black" stroke-width="2" stroke-miterlimit="10"/>
<path d="M598.56 325C599.33 323.55 600.05 322.11 601.07 320C601.35 319.42 601.62 318.83 601.91 318.23" stroke="black" stroke-width="2" stroke-miterlimit="10"/>
<path d="M361 719.71C366.699 709.176 370.666 697.794 372.75 686" stroke="black" stroke-width="2" stroke-miterlimit="10"/>
<path d="M312 802.22C307.03 802.625 302.094 803.381 297.23 804.48" stroke="black" stroke-width="2" stroke-miterlimit="10"/>
<path d="M842.09 244.39L842 243.85" stroke="black" stroke-width="2" stroke-miterlimit="10"/>
<path d="M1093.35 686C1095.42 697.781 1099.38 709.153 1105.06 719.68" stroke="black" stroke-width="2" stroke-miterlimit="10"/>
<path d="M0 1090.64C68.87 1058.17 118.31 1026.86 144 1006C144 1006 184 973.55 218.18 921.56C219.946 918.82 221.478 915.937 222.76 912.94C223.18 911.94 223.57 910.94 223.94 909.8C228.68 895.54 224.05 887.13 229.22 869.71C230.12 866.71 230.98 864.54 231.77 862.55C236.89 849.55 249.37 825.1 276.77 811.64C283.299 808.459 290.18 806.056 297.27 804.48C296.91 793.76 295.34 784.63 304.04 772.24C314.73 756.98 325.57 758.76 342.63 743.24C350.009 736.463 356.216 728.512 361 719.71C354.59 678.6 363.59 651.71 374.3 633.98C392.08 604.57 410.74 606.71 429.79 570.98C447.79 537.13 440.87 516.86 450.79 494.98C453.869 488.651 457.81 482.778 462.5 477.53C480.36 456.99 494.91 460.62 519.28 442.12C529.76 434.17 537.22 426.45 550.35 408.98C554.01 404.11 556.62 400.2 557.75 398.51C568.28 382.87 574.68 370.23 582.18 355.77C593.64 333.67 596.28 329.3 598.5 325.09C598.69 325.15 598.89 325.19 599.08 325.24C600 322.92 600.93 320.61 601.85 318.29C605.908 309.564 609.47 300.617 612.52 291.49L613.42 289.23L613.29 289.17C613.294 289.11 613.294 289.05 613.29 288.99L613.53 289.07C614.58 286.18 615.61 283.01 616.53 279.57C617.37 276.46 618.02 273.5 618.53 270.73C611.9 267.97 605.927 263.844 601 258.62C605.72 252.52 614.4 246.92 626.11 242.14C650.77 232.06 688.83 225.6 731.54 225.6C777.36 225.6 817.82 233.04 842.13 244.39C847.61 278.6 857.21 303.52 865.07 320.01C869.07 328.34 868.48 326.01 883.9 355.72C891.4 370.18 897.8 382.82 908.33 398.46C909.46 400.15 912.07 404.06 915.73 408.93C928.86 426.4 936.32 434.12 946.8 442.07C971.17 460.57 985.72 456.94 1003.58 477.48C1008.27 482.728 1012.21 488.601 1015.29 494.93C1025.23 516.83 1018.29 537.1 1036.29 570.93C1055.29 606.69 1074 604.55 1091.78 633.93C1102.49 651.66 1111.49 678.55 1105.08 719.66C1109.9 728.455 1116.13 736.392 1123.54 743.15C1140.6 758.71 1151.44 756.93 1162.13 772.15C1170.83 784.54 1169.26 793.67 1168.9 804.39C1175.99 805.966 1182.86 808.369 1189.39 811.55C1216.75 825.01 1229.23 849.47 1234.39 862.46C1235.18 864.46 1236.03 866.58 1236.94 869.62C1242.11 887.04 1237.48 895.45 1242.22 909.71C1242.59 910.84 1242.98 911.87 1243.39 912.85C1244.68 915.846 1246.21 918.729 1247.98 921.47C1282.2 973.47 1322.16 1005.91 1322.16 1005.91C1347.84 1026.77 1397.27 1058.08 1466.16 1090.55" stroke="black" stroke-width="2" stroke-miterlimit="10"/>
<path d="M1168.88 804.48C1164.02 803.381 1159.08 802.625 1154.11 802.22" stroke="black" stroke-width="2" stroke-miterlimit="10"/>
<path d="M850.61 268.17H850.6" stroke="black" stroke-linecap="round" stroke-linejoin="round"/>
<path d="M917.92 269.34C917.92 280.11 913.41 288.24 910.22 293.67C897.12 316.01 873.73 322.43 867.86 323.86C864.693 316.787 861.58 309.34 858.52 301.52C856.36 295.96 854.36 290.513 852.52 285.18L852.86 284.83C853.86 283.76 854.86 282.72 855.8 281.72C856.993 280.447 858.093 279.247 859.1 278.12C863.5 273.19 866.1 269.77 866.1 269.34C866.1 268.91 866.1 268.44 866.1 268.44C866.1 268.195 866.08 267.951 866.04 267.71C866.044 267.677 866.044 267.643 866.04 267.61C866.04 267.4 866.04 267.17 865.96 266.95V266.8C865.96 266.54 865.86 266.28 865.8 266.03C865.74 265.78 865.68 265.54 865.61 265.3C865.47 264.81 865.31 264.3 865.12 263.82C865.06 263.66 864.99 263.5 864.91 263.33C864.476 262.28 863.94 261.275 863.31 260.33C863.166 260.085 863.009 259.848 862.84 259.62C862.66 259.35 862.48 259.1 862.27 258.83C861.75 258.17 861.2 257.5 860.58 256.83C860.44 256.66 860.28 256.49 860.12 256.32L859.75 255.94C859.5 255.7 859.26 255.45 858.99 255.21C858.72 254.97 858.36 254.61 857.99 254.32C857.67 254.03 857.34 253.75 856.99 253.48C856.64 253.21 856.28 252.9 855.9 252.61C855.17 252.03 854.41 251.46 853.6 250.91C853.19 250.63 852.79 250.34 852.36 250.07L851.16 249.29L849.68 248.39C848.8 247.87 847.89 247.39 846.95 246.85C846.01 246.31 844.95 245.78 843.87 245.26L842.14 244.43C817.78 233 777.32 225.6 731.5 225.6C688.79 225.6 650.73 232.06 626.07 242.14C614.36 246.92 605.68 252.52 600.96 258.62C600.62 259.06 600.3 259.5 600.02 259.92L599.95 260.02C599.75 260.32 599.56 260.62 599.38 260.92L599.2 261.23C597.67 263.657 596.869 266.471 596.89 269.34C596.89 269.59 596.89 269.84 596.89 270.09C596.89 270.34 596.89 270.58 596.95 270.82C597.01 271.06 596.95 271.31 597.04 271.55C597.13 271.79 597.12 272.03 597.17 272.27C597.27 272.75 597.39 273.27 597.54 273.71C597.69 274.15 597.86 274.71 598.05 275.13L598.35 275.83C598.52 276.18 598.69 276.53 598.89 276.88C598.97 277.05 599.07 277.22 599.17 277.39C599.42 277.81 599.66 278.2 599.9 278.56C602.856 282.674 606.796 285.981 611.36 288.18V288.18C612 288.51 612.65 288.82 613.36 289.12L613.49 289.18L612.59 291.44C609.03 300.38 605.473 309.313 601.92 318.24C601 320.56 600.07 322.87 599.15 325.19C598.96 325.14 598.76 325.1 598.57 325.04C588.176 322.519 578.371 318.002 569.7 311.74C554.15 300.39 544.85 284.53 545.09 269.34C545.09 269.34 546.09 248.57 569.53 229.76C577.26 223.55 587.43 217.57 600.82 212.6C603.333 211.667 605.953 210.76 608.68 209.88C610.68 209.23 612.68 208.61 614.74 208L615.37 207.82C621.67 205.97 628.32 204.28 635.24 202.82C637.03 202.42 638.83 202.04 640.66 201.67L643.15 201.18C648.03 200.233 653.03 199.363 658.15 198.57C660.56 198.21 663.01 197.85 665.47 197.52L665.96 197.45L667.77 197.22C668.45 197.12 669.14 197.04 669.83 196.96C677.21 196.027 684.767 195.27 692.5 194.69L695.7 194.45C697.94 194.303 700.19 194.167 702.45 194.04L704.64 193.92C711.68 193.56 718.81 193.343 726.03 193.27C727.46 193.27 728.89 193.27 730.33 193.27H735.14C743.75 193.33 752.27 193.59 760.64 194.07C761.64 194.12 762.73 194.18 763.76 194.25L765.32 194.34L767.32 194.48L769.62 194.64C775.62 195.093 781.523 195.64 787.33 196.28C789.13 196.48 790.92 196.69 792.69 196.92L795.19 197.23L796.96 197.47L799.49 197.81C805.25 198.61 810.87 199.517 816.35 200.53L819.02 201.03L819.92 201.21L820.29 201.28L822.43 201.71L824.43 202.13L826.76 202.62C832.96 203.953 838.92 205.427 844.64 207.04C847.927 207.973 851.13 208.943 854.25 209.95C855.73 210.43 857.17 210.95 858.59 211.41C907.49 228.34 917.92 252.14 917.92 269.34Z" stroke="black" stroke-width="2" stroke-linecap="round" stroke-linejoin="round"/>
<path d="M618.64 270.68C618.13 273.45 617.48 276.41 616.64 279.52C615.72 282.96 614.69 286.13 613.64 289.02L613.4 288.94C612.85 288.76 612.16 288.51 611.4 288.18C606.9 286.334 603.043 283.204 600.31 279.18C600.19 279 600.06 278.8 599.94 278.6C599.7 278.24 599.46 277.85 599.21 277.43L598.93 276.92C598.75 276.587 598.57 276.237 598.39 275.87L598.09 275.17C597.89 274.708 597.72 274.234 597.58 273.75C597.424 273.279 597.3 272.798 597.21 272.31C597.16 272.07 597.12 271.83 597.08 271.59C597.04 271.35 597.01 271.1 596.99 270.86C596.97 270.62 596.94 270.37 596.93 270.13C596.92 269.89 596.93 269.63 596.93 269.38C596.964 266.519 597.762 263.719 599.24 261.27L599.42 260.96C599.6 260.66 599.79 260.36 599.99 260.06L600.06 259.96C600.35 259.52 600.67 259.09 601 258.66C605.976 263.883 612.001 267.994 618.68 270.72L618.64 270.68Z" fill="black" stroke="black" stroke-width="2" stroke-linecap="round" stroke-linejoin="round"/>
<path d="M866.11 269.34C865.907 272.104 865.156 274.8 863.9 277.27C860.71 283.02 854.23 285.47 853.19 285.85C851.35 280.237 849.517 274.623 847.69 269.01C853.136 266.573 858.06 263.106 862.19 258.8C862.39 259.07 862.58 259.32 862.76 259.59C862.94 259.86 863.08 260.06 863.23 260.3C863.86 261.245 864.396 262.25 864.83 263.3C864.91 263.47 864.98 263.63 865.04 263.79C865.23 264.29 865.39 264.79 865.53 265.27C865.6 265.51 865.67 265.75 865.72 266C865.77 266.25 865.83 266.51 865.88 266.77V266.92C865.88 267.14 865.94 267.37 865.96 267.58C866.081 268.158 866.132 268.749 866.11 269.34Z" fill="black" stroke="black" stroke-width="2" stroke-linecap="round" stroke-linejoin="round"/>
<path d="M858.67 211.34C857.25 210.85 855.81 210.34 854.33 209.88C851.21 208.873 848.007 207.903 844.72 206.97C841.54 191.89 835.06 172.5 821.88 154.97C816.285 147.509 809.724 140.824 802.37 135.09C753.37 96.85 678.61 108.8 640.37 153.14C639.85 153.74 639.37 154.36 638.84 154.97C624.12 172.86 617.62 192.77 614.68 207.97C612.62 208.58 610.6 209.2 608.62 209.85C605.893 210.73 603.273 211.637 600.76 212.57C602.97 197.3 608.42 175.57 622.44 154.98C624.909 151.337 627.58 147.835 630.44 144.49C672.85 95.26 755.76 82 810.22 124.49C821.118 132.985 830.457 143.308 837.82 155C850.44 175 856.11 196.08 858.67 211.34Z" fill="black" stroke="black" stroke-width="2" stroke-linecap="round" stroke-linejoin="round"/>
<path d="M730.71 112.21L731.5 193.21" stroke="black" stroke-width="2" stroke-linecap="round" stroke-linejoin="round"/>
<path d="M747.87 110.47C765.52 120.866 779.411 136.599 787.54 155.4C793.118 168.592 795.74 182.846 795.22 197.16" stroke="black" stroke-width="2" stroke-linecap="round" stroke-linejoin="round"/>
<path d="M700.63 116.44C691.184 124.987 683.355 135.166 677.52 146.49C669.46 162.274 665.323 179.768 665.46 197.49" stroke="black" stroke-width="2" stroke-linecap="round" stroke-linejoin="round"/>
<path d="M674 126.78C663.847 137.621 655.473 150.001 649.19 163.46C643.702 175.217 639.833 187.663 637.69 200.46" stroke="black" stroke-width="2" stroke-linecap="round" stroke-linejoin="round"/>
<path d="M714.57 112C703.392 137.877 698.312 165.977 699.72 194.13" stroke="black" stroke-width="2" stroke-linecap="round" stroke-linejoin="round"/>
<path d="M742.07 110.47C749.121 123.696 754.659 137.674 758.58 152.14C762.302 165.907 764.558 180.029 765.31 194.27" stroke="black" stroke-width="2" stroke-linecap="round" stroke-linejoin="round"/>
<path d="M781.46 121.4C794.719 133.213 805.29 147.733 812.46 163.98C817.72 175.941 821.093 188.645 822.46 201.64" stroke="black" stroke-width="2" stroke-linecap="round" stroke-linejoin="round"/>
<path d="M642.72 200.24C641.281 199.444 640.156 198.181 639.53 196.66C639.08 195.59 637.53 196.52 638.01 197.58C638.097 197.787 638.197 197.997 638.31 198.21C638.2 198.236 638.096 198.284 638.006 198.353C637.917 198.422 637.843 198.51 637.79 198.61C637.54 199.064 637.442 199.586 637.51 200.1C637.29 200.125 637.087 200.231 636.941 200.397C636.795 200.564 636.716 200.779 636.72 201V201.17C636.722 201.405 636.815 201.631 636.978 201.8C637.142 201.97 637.365 202.07 637.6 202.08C637.806 202.072 638.005 201.996 638.164 201.864C638.323 201.732 638.434 201.551 638.48 201.35C638.597 201.407 638.725 201.436 638.855 201.436C638.985 201.436 639.113 201.407 639.23 201.35L639.91 201.47L642.02 201.89C643 202.08 643.65 200.75 642.72 200.24Z" fill="black"/>
<path d="M669.36 195.58C668.702 195.413 668.104 195.062 667.639 194.568C667.173 194.074 666.857 193.457 666.73 192.79C666.708 192.672 666.661 192.561 666.59 192.464C666.519 192.367 666.427 192.288 666.321 192.232C666.215 192.176 666.098 192.145 665.978 192.141C665.858 192.138 665.739 192.161 665.63 192.21C665.525 192.163 665.411 192.142 665.297 192.149C665.182 192.155 665.071 192.19 664.973 192.249C664.875 192.308 664.792 192.389 664.733 192.487C664.673 192.585 664.638 192.696 664.63 192.81C664.2 195.76 660.97 196.3 658.63 197.19C657.63 197.59 658.03 199.35 659.1 198.94C659.83 198.66 660.61 198.4 661.38 198.1C661.461 198.287 661.607 198.439 661.79 198.529C661.973 198.618 662.182 198.64 662.38 198.59C663.855 198.275 665.284 197.771 666.63 197.09C666.63 197.09 666.63 197.04 666.71 197.03H666.93L668.93 197.31C670 197.49 670.5 195.87 669.36 195.58Z" fill="black"/>
<path d="M704.06 192.73C703.176 192.428 702.38 191.913 701.742 191.232C701.104 190.55 700.643 189.722 700.4 188.82C700.342 188.603 700.202 188.416 700.011 188.298C699.819 188.181 699.59 188.141 699.37 188.187C699.15 188.233 698.955 188.361 698.827 188.546C698.699 188.731 698.646 188.958 698.68 189.18C697.496 191.027 695.791 192.482 693.78 193.36C693.691 193.366 693.603 193.386 693.52 193.42L692.89 193.72C691.99 194.15 692.63 195.72 693.57 195.38C694.48 195.056 695.352 194.633 696.17 194.12C696.352 194.233 696.569 194.276 696.78 194.24C697.883 194.048 698.955 193.712 699.97 193.24L700.82 193.89C700.995 194 701.205 194.04 701.409 194.003C701.612 193.966 701.794 193.854 701.92 193.69C702.441 194.026 703.002 194.295 703.59 194.49C704.67 194.84 705.13 193.09 704.06 192.73Z" fill="black"/>
<path d="M734.78 192.14C734.119 191.709 733.562 191.136 733.148 190.463C732.735 189.791 732.476 189.035 732.39 188.25C732.39 188.2 732.39 188.16 732.39 188.11C732.395 188.033 732.395 187.957 732.39 187.88C732.25 186.74 730.49 186.73 730.63 187.88C730.91 190.31 728.47 191.39 726.63 192.11C725.63 192.52 726.04 194.28 727.1 193.86C727.56 193.67 728.1 193.47 728.52 193.23C728.618 193.349 728.749 193.436 728.897 193.481C729.045 193.525 729.202 193.525 729.35 193.48L732.6 192.57C732.994 193.004 733.441 193.387 733.93 193.71C734.85 194.34 735.73 192.77 734.78 192.14Z" fill="black"/>
<path d="M826.59 201.27C825.77 200.71 824.89 200.19 824.11 199.58C823.476 198.979 823.06 198.184 822.93 197.32C822.886 197.122 822.769 196.947 822.602 196.832C822.435 196.717 822.231 196.67 822.03 196.7C821.836 196.684 821.643 196.736 821.485 196.848C821.326 196.959 821.211 197.123 821.16 197.31C820.59 199.05 818.51 199.31 817 199.56C815.88 199.73 816.36 201.48 817.47 201.31C818.169 201.203 818.858 201.04 819.53 200.82C819.613 200.93 819.719 201.021 819.839 201.088C819.96 201.155 820.093 201.197 820.23 201.21C821.127 201.307 822.034 201.194 822.88 200.88C823.779 201.602 824.721 202.27 825.7 202.88C826.65 203.48 827.53 201.91 826.59 201.27Z" fill="black"/>
<path d="M799.13 196.78C798.364 196.319 797.702 195.705 797.185 194.975C796.669 194.245 796.31 193.416 796.13 192.54C796.129 192.346 796.065 192.158 795.948 192.004C795.83 191.849 795.666 191.738 795.479 191.686C795.292 191.634 795.094 191.644 794.913 191.715C794.733 191.786 794.581 191.914 794.48 192.08C793.09 194.42 790.35 194.87 787.92 195.27C786.8 195.45 787.28 197.2 788.39 197.02C789.07 196.91 789.76 196.77 790.39 196.61C790.45 196.758 790.557 196.882 790.694 196.963C790.832 197.044 790.992 197.078 791.15 197.06C792.695 196.936 794.206 196.536 795.61 195.88C796.267 196.879 797.134 197.722 798.15 198.35C799.21 199 800.1 197.38 799.13 196.78Z" fill="black"/>
<path d="M769.33 193.42C767.957 192.832 766.779 191.868 765.93 190.64C765.817 190.473 765.652 190.348 765.46 190.286C765.269 190.223 765.062 190.225 764.872 190.293C764.682 190.36 764.52 190.489 764.411 190.659C764.302 190.828 764.252 191.029 764.27 191.23C764.16 192.62 762.27 192.83 761.27 192.98C760.27 193.13 760.62 194.9 761.74 194.73C762.463 194.684 763.171 194.494 763.82 194.172C764.469 193.849 765.047 193.399 765.52 192.85C766.364 193.76 767.385 194.488 768.52 194.99C769.47 195.45 770.37 193.89 769.33 193.42Z" fill="black"/>
<path d="M733.86 127.62L735.36 183.87" stroke="black" stroke-linecap="round" stroke-linejoin="round" stroke-dasharray="20 3 2 4 12 4"/>
<path d="M756.87 135.68C764.672 152.202 768.768 170.229 768.87 188.5" stroke="black" stroke-linecap="round" stroke-linejoin="round" stroke-dasharray="20 3 2 4 12 4"/>
<path d="M799.38 193.48L816.38 196.22" stroke="black" stroke-linecap="round" stroke-linejoin="round" stroke-dasharray="20 3 2 4 12 4"/>
<path d="M685.85 141.51C681.516 148.071 678.044 155.163 675.52 162.61C671.881 173.396 670.241 184.755 670.68 196.13" stroke="black" stroke-linecap="round" stroke-linejoin="round" stroke-dasharray="20 3 2 4 12 4"/>
<path d="M631.84 246.3C677.837 231.91 726.417 227.712 774.2 234" stroke="black" stroke-linecap="round" stroke-linejoin="round" stroke-dasharray="20 3 2 4 12 4"/>
<path d="M872.89 211.65C885.805 213.77 897.777 219.749 907.23 228.8C911.23 232.69 919.39 240.8 923.23 254.18C928.76 273.49 921.46 290.04 919.23 294.66" stroke="black" stroke-linecap="round" stroke-linejoin="round" stroke-dasharray="20 3 2 4 12 4"/>
<path opacity="0.07" d="M590.44 217.41C583.041 220.701 576.051 224.842 569.61 229.75C568.826 229.788 568.074 230.071 567.46 230.56C552.73 241.76 541.16 259.36 545.17 278.96C549.52 300.23 568.68 312.71 586.52 321.07C591.66 323.48 596.17 315.63 590.99 313.21C575.99 306.21 559.39 296.69 554.39 279.33C550.45 265.65 556.96 252.51 566.48 243.14C567.346 242.987 568.15 242.592 568.8 242C576.575 235.095 585.386 229.453 594.91 225.28C600.13 223 595.62 215.12 590.44 217.41Z" fill="black"/>
<path opacity="0.07" d="M879 301.15C874.148 296.017 870.283 290.034 867.6 283.5C867.39 282.885 867.015 282.339 866.516 281.923C866.017 281.506 865.413 281.236 864.77 281.14L864.72 281.03C862.6 275.67 854.04 278.03 856.19 283.45C861.022 295.812 867.901 307.273 876.54 317.35C878.54 319.68 882 318.7 883.54 316.43C887.4 310.42 883 305.34 879 301.15Z" fill="black"/>
<path d="M516.5 461.5C510.6 462.35 489.76 466.1 473.5 484.5C453 507.76 456 536 456.5 540.5" stroke="black" stroke-linecap="round" stroke-linejoin="round" stroke-dasharray="20 3 2 4 12 4"/>
<path d="M619.5 295.5C607.63 336.053 588.3 374.036 562.5 407.5" stroke="black" stroke-linecap="round" stroke-linejoin="round" stroke-dasharray="20 3 2 4 12 4"/>
<path d="M291.5 825.5C280.563 828.11 270.54 833.64 262.5 841.5C241.8 862.02 244.08 890.22 244.5 894.5" stroke="black" stroke-linecap="round" stroke-linejoin="round" stroke-dasharray="20 3 2 4 12 4"/>
<path d="M1263.5 966.5C1303.02 1015.66 1354.74 1053.59 1413.5 1076.5" stroke="black" stroke-linecap="round" stroke-linejoin="round" stroke-dasharray="20 3 2 4 12 4"/>
<path d="M954.5 464.5C964.755 466.481 974.369 470.944 982.5 477.5C1007.2 497.69 1006.65 529.9 1006.5 534.5" stroke="black" stroke-linecap="round" stroke-linejoin="round" stroke-dasharray="20 3 2 4 12 4"/>
<path d="M848.5 312.5C856.63 331.07 866.2 350.87 877.5 371.5C887.5 389.66 897.56 406.32 907.5 421.5" stroke="black" stroke-linecap="round" stroke-linejoin="round" stroke-dasharray="20 3 2 4 12 4"/>
</g>
<defs>
<clipPath id="clip0_184_2">
<rect width="1466" height="1091" fill="white"/>
</clipPath>
</defs>
</svg>
