<svg width="102" height="243" viewBox="0 0 102 243" fill="none" xmlns="http://www.w3.org/2000/svg">
<path d="M100.55 95.0057C99.913 94.9744 99.2766 95.0724 98.6792 95.2938C98.0818 95.5152 97.5359 95.8554 97.0745 96.2936C96.4251 96.8769 95.6406 97.2906 94.7913 97.4978C88.0761 98.5181 83.4259 102.516 79.5478 107.65C78.7084 108.788 77.6508 109.741 76.8618 110.878C74.8976 113.672 72.2451 113.805 69.24 113.488C61.9372 112.702 54.6512 111.514 47.2645 111.815C41.237 111.802 35.2221 112.362 29.3014 113.488C25.3547 114.594 21.8224 116.834 19.1446 119.927C13.9198 125.212 9.71444 131.409 6.73829 138.208C6.26238 139.324 5.36338 140.208 4.23688 140.667C2.76707 141.344 1.52521 142.43 0.661034 143.795C0.174182 144.514 -0.379822 145.317 0.35885 146.153C1.09752 146.989 1.95371 146.571 2.74275 146.153C7.38132 143.751 11.4024 140.317 14.4943 136.118C16.6095 132.953 19.101 130.055 21.9146 127.487C24.1785 125.701 26.8785 124.546 29.7379 124.142C33.5319 123.439 37.2589 122.135 41.1873 122.469C41.5734 122.469 42.0267 122.469 42.3289 123.021C39.8523 125.056 37.4979 127.234 35.2779 129.544C31.9203 132.89 28.4284 135.934 25.3562 139.446C20.6723 144.815 18.4395 151.405 17.0461 158.263C16.5428 162.024 15.6483 165.724 14.3768 169.302C13.5206 171.258 14.1082 172.747 15.4513 172.965C15.8057 173.026 16.1696 173.007 16.5154 172.908C16.8612 172.809 17.1797 172.632 17.4467 172.392C17.7138 172.152 17.9223 171.854 18.0566 171.521C18.1908 171.189 18.2471 170.83 18.2213 170.472C18.6242 164.066 22.8044 159.45 26.0613 154.533C30.7228 147.271 36.6801 140.922 43.6383 135.8C47.303 133.108 51.7437 131.671 56.2965 131.702C60.8628 131.702 65.4124 131.702 69.9619 132.053C70.8369 131.989 71.7062 132.238 72.4129 132.756C77.0968 137.305 82.4857 141.119 85.9776 146.839C88.5378 151.521 90.4092 156.546 91.5345 161.758C91.6146 162.42 91.51 163.092 91.2323 163.698C90.4835 165.845 90.2759 168.143 90.6279 170.389C90.8126 171.175 90.9973 172.262 92.1389 172.195C93.2804 172.128 93.3476 171.242 93.5155 170.523C94.0023 168.248 94.9424 165.94 94.5899 163.648C93.8009 158.313 94.2541 152.894 93.4315 147.575C92.7911 143.73 90.9527 140.184 88.1769 137.439C85.709 134.83 83.8456 131.618 80.5719 129.812C80.3685 129.706 80.2076 129.533 80.116 129.323C80.0244 129.113 80.0075 128.879 80.0683 128.658C81.8814 131.016 85.5244 131.836 88.6134 132.003C90.6622 132.21 92.7137 131.635 94.353 130.393C95.9922 129.151 97.097 127.335 97.4439 125.313C97.762 123.318 97.3816 121.275 96.3667 119.527C95.3518 117.779 93.7642 116.432 91.8702 115.712C89.8724 114.99 87.7111 114.843 85.6331 115.287C83.5551 115.73 81.6442 116.747 80.1186 118.221C80.2395 117.84 80.4462 117.491 80.723 117.201C83.0056 114.497 85.0185 111.579 86.7331 108.487C87.4628 107.211 88.5166 106.15 89.7885 105.409C91.6264 104.309 93.3674 103.056 94.9928 101.663C95.849 101.01 97.4271 100.692 97.7964 100.274C99.0219 98.9028 101.255 98.8192 101.893 96.9292C102.228 95.7918 101.775 95.1562 100.55 95.0057Z" fill="#282826"/>
<path d="M72 89V2" stroke="#282826" stroke-width="4" stroke-linecap="round" stroke-linejoin="round" stroke-dasharray="27 6 3 5 14 7"/>
<path d="M28 171V241" stroke="#282826" stroke-width="4" stroke-linecap="round" stroke-linejoin="round" stroke-dasharray="27 6 3 5 14 7"/>
<path d="M63 98V82" stroke="#282826" stroke-width="4" stroke-linecap="round" stroke-linejoin="round" stroke-dasharray="27 6 3 5 14 7"/>
<path d="M40 153V194" stroke="#282826" stroke-width="4" stroke-linecap="round" stroke-linejoin="round" stroke-dasharray="27 6 3 5 14 7"/>
</svg>
