<svg viewBox="0 0 500 500" width="24px" src="images/icon/DiscordIcon" color="deActive" xmlns="http://www.w3.org/2000/svg" class="sc-bdnxRM eSUQoh" style="cursor: pointer;"><path d="M341.6,263.6c0,19.8-14.1,36-32.1,36c-17.6,0-32.1-16.2-32.1-36s14.2-36,32.1-36C327.5,227.6,341.9,243.9,341.6,263.6z M500,250c0,138.1-111.9,250-250,250S0,388.1,0,250S111.9,0,250,0S500,111.9,500,250z M427.1,340.2c7.4-77.1-12.5-144-52.8-203.4 c-0.1-0.2-0.3-0.3-0.5-0.4c-22.8-10.4-47.2-18.1-72.7-22.6c-0.5-0.1-0.9,0.1-1.2,0.6c-3.1,5.6-6.6,12.9-9.1,18.6 c-27.5-4.1-54.8-4.1-81.7,0c-2.4-5.9-6-13-9.2-18.6c-0.2-0.4-0.7-0.6-1.2-0.6c-25.5,4.4-49.9,12.1-72.7,22.6 c-0.2,0.1-0.4,0.2-0.5,0.4c-46.3,69.2-59,136.7-52.8,203.4c0,0.3,0.2,0.6,0.5,0.8c30.6,22.4,60.2,36.1,89.2,45.1 c0.5,0.1,1,0,1.3-0.4c6.9-9.4,13-19.3,18.3-29.7c0.3-0.6,0-1.3-0.6-1.6c-9.7-3.7-19-8.2-27.9-13.3c-0.7-0.4-0.8-1.4-0.1-1.9 c1.9-1.4,3.7-2.9,5.5-4.3c0.3-0.3,0.8-0.3,1.2-0.2c58.5,26.7,121.8,26.7,179.6,0c0.4-0.2,0.8-0.1,1.2,0.1c1.8,1.5,3.7,2.9,5.5,4.4 c0.6,0.5,0.6,1.5-0.1,1.9c-8.9,5.2-18.2,9.6-27.9,13.3c-0.6,0.2-0.9,1-0.6,1.6c5.4,10.4,11.5,20.3,18.2,29.7 c0.3,0.4,0.8,0.6,1.3,0.4c29.2-9,58.8-22.7,89.4-45.1C426.9,340.8,427.1,340.5,427.1,340.2z M190.8,227.6c-17.9,0-32.1,16.2-32.1,36 s14.5,36,32.1,36c17.9,0,32.1-16.2,32.1-36C223.1,243.9,208.8,227.6,190.8,227.6z"></path></svg>