<svg width="1.5rem" viewBox="0 0 24 24" fill="none" xmlns="http://www.w3.org/2000/svg" color="text" class="sc-bdnxRM ePFVAE"><path d="M15.78 15.84C15.78 15.84 18.64 13 19.61 12C22.68 8.99997 21.15 2.81997 21.15 2.81997C21.15 2.81997 15 1.28997 12 4.35997C9.66 6.63997 8.14 8.21997 8.14 8.21997C8.14 8.21997 4.3 7.41997 2 9.71997L14.25 22C16.55 19.67 15.78 15.84 15.78 15.84ZM14.28 6.83997C14.4657 6.65402 14.6863 6.5065 14.9291 6.40585C15.1719 6.30521 15.4322 6.2534 15.695 6.2534C15.9578 6.2534 16.2181 6.30521 16.4609 6.40585C16.7037 6.5065 16.9243 6.65402 17.11 6.83997C17.3895 7.11977 17.5797 7.47614 17.6567 7.86404C17.7337 8.25194 17.694 8.65396 17.5425 9.01928C17.3911 9.3846 17.1348 9.69683 16.8059 9.91649C16.4771 10.1362 16.0905 10.2534 15.695 10.2534C15.2995 10.2534 14.9129 10.1362 14.5841 9.91649C14.2552 9.69683 13.9989 9.3846 13.8475 9.01928C13.696 8.65396 13.6563 8.25194 13.7333 7.86404C13.8103 7.47614 14.0005 7.11977 14.28 6.83997ZM3 21C4.85107 20.9472 6.62315 20.2383 8 19L5 16C3 17 3 21 3 21Z" fill="#A5A8BE"></path></svg>