<svg width="1.5rem" viewBox="0 0 24 24" fill="none" xmlns="http://www.w3.org/2000/svg" color="text" class="sc-bdnxRM ePFVAE"><path d="M19 22H5V20H19V22ZM16 18H8L10.18 10H8V8H10.72L10.79 7.74C10.1002 7.44019 9.54981 6.88982 9.25 6.2C8.58 4.68 9.27 2.91 10.79 2.25C12.31 1.58 14.08 2.27 14.74 3.79C14.8993 4.15033 14.9858 4.53859 14.9946 4.93247C15.0034 5.32635 14.9342 5.71807 14.7911 6.08513C14.648 6.4522 14.4338 6.78736 14.1607 7.07136C13.8877 7.35536 13.5612 7.58259 13.2 7.74L13.27 8H16V10H13.82L16 18Z" fill="#A5A8BE"></path></svg>