<svg width="1.5rem" viewBox="0 0 24 24" fill="none" xmlns="http://www.w3.org/2000/svg" color="text" class="sc-bdnxRM ePFVAE"><path fill-rule="evenodd" clip-rule="evenodd" d="M3 9.00005C3.00013 7.97958 3.26054 6.976 3.7566 6.0842C4.25266 5.19241 4.96798 4.44187 5.83492 3.90356C6.70186 3.36525 7.69178 3.05694 8.71107 3.0078C9.73036 2.95866 10.7453 3.17031 11.6601 3.62273C12.5748 4.07515 13.359 4.75339 13.9385 5.59333C14.5181 6.43327 14.8738 7.40714 14.9721 8.42287C15.0704 9.4386 14.908 10.4626 14.5003 11.3981C14.0926 12.3336 13.453 13.1496 12.642 13.7691C15.186 14.9071 17 17.2081 17 20.0001C17 20.2653 16.8946 20.5196 16.7071 20.7072C16.5196 20.8947 16.2652 21.0001 16 21.0001H2C1.73478 21.0001 1.48043 20.8947 1.29289 20.7072C1.10536 20.5196 1 20.2653 1 20.0001C1 17.2081 2.814 14.9071 5.358 13.7691C4.62415 13.2095 4.02952 12.4879 3.6205 11.6607C3.21147 10.8335 2.99912 9.92289 3 9.00005ZM22 21.0001H18C18.2652 21.0001 18.5196 20.8947 18.7071 20.7072C18.8946 20.5196 19 20.2653 19 20.0001C19 17.2081 17.186 14.9071 14.642 13.7691C15.5014 13.1125 16.1675 12.236 16.5698 11.2321C16.9721 10.2282 17.0956 9.13425 16.9274 8.06591C16.7592 6.99758 16.3054 5.99454 15.6141 5.16285C14.9228 4.33115 14.0196 3.70171 13 3.34105C14.3485 2.86236 15.8237 2.88137 17.1594 3.39464C18.4951 3.90792 19.6034 4.88167 20.2843 6.14021C20.9652 7.39875 21.174 8.85921 20.8728 10.2581C20.5717 11.657 19.7805 12.9022 18.642 13.7691C21.186 14.9071 23 17.2081 23 20.0001C23 20.2653 22.8946 20.5196 22.7071 20.7072C22.5196 20.8947 22.2652 21.0001 22 21.0001Z" fill="#A5A8BE"></path></svg>