<svg viewBox="0 0 26 28" height="30" width="30" color="textSubtle" xmlns="http://www.w3.org/2000/svg" class="sc-bdnxRM irpsKV"><path d="M25.0938 17.3428L23.1777 15.7051C23.2686 15.1484 23.3154 14.5801 23.3154 14.0147C23.3154 13.4492 23.2686 12.8779 23.1777 12.3242L25.0938 10.6865C25.2385 10.5626 25.3421 10.3976 25.3908 10.2134C25.4394 10.0292 25.4309 9.83451 25.3662 9.65528L25.3399 9.5791C24.8126 8.10456 24.0224 6.73776 23.0078 5.54492L22.9551 5.4834C22.8319 5.33853 22.6677 5.2344 22.4841 5.18471C22.3005 5.13503 22.1062 5.14213 21.9268 5.20508L19.5479 6.05176C18.669 5.33106 17.6904 4.7627 16.6299 4.36719L16.1699 1.87988C16.1352 1.69251 16.0443 1.52012 15.9093 1.38564C15.7743 1.25115 15.6016 1.16093 15.4141 1.12695L15.335 1.1123C13.8115 0.836914 12.2061 0.836914 10.6826 1.1123L10.6035 1.12695C10.416 1.16093 10.2433 1.25115 10.1083 1.38564C9.97327 1.52012 9.88237 1.69251 9.84767 1.87988L9.38478 4.37891C8.33428 4.77757 7.35566 5.34455 6.48732 6.05762L4.09083 5.20508C3.91144 5.14163 3.71698 5.13427 3.5333 5.18398C3.34962 5.2337 3.18542 5.33813 3.06251 5.4834L3.00978 5.54492C1.99696 6.73903 1.20706 8.10549 0.677749 9.5791L0.651381 9.65528C0.519545 10.0215 0.627944 10.4316 0.923842 10.6865L2.8633 12.3418C2.77248 12.8926 2.72853 13.4551 2.72853 14.0117C2.72853 14.5742 2.77248 15.1367 2.8633 15.6816L0.929702 17.3369C0.784963 17.4608 0.681371 17.6259 0.632702 17.8101C0.584032 17.9943 0.592591 18.1889 0.657241 18.3682L0.683608 18.4443C1.21388 19.918 1.99611 21.2803 3.01564 22.4785L3.06837 22.54C3.19158 22.6849 3.35579 22.789 3.53936 22.8387C3.72293 22.8884 3.91724 22.8813 4.09669 22.8184L6.49318 21.9658C7.36623 22.6836 8.33888 23.252 9.39064 23.6445L9.85353 26.1436C9.88823 26.3309 9.97913 26.5033 10.1141 26.6378C10.2491 26.7723 10.4219 26.8625 10.6094 26.8965L10.6885 26.9111C12.2269 27.188 13.8024 27.188 15.3408 26.9111L15.4199 26.8965C15.6074 26.8625 15.7802 26.7723 15.9152 26.6378C16.0502 26.5033 16.1411 26.3309 16.1758 26.1436L16.6358 23.6563C17.6963 23.2578 18.6748 22.6924 19.5537 21.9717L21.9326 22.8184C22.112 22.8818 22.3065 22.8892 22.4902 22.8395C22.6738 22.7897 22.838 22.6853 22.961 22.54L23.0137 22.4785C24.0332 21.2744 24.8154 19.918 25.3457 18.4443L25.3721 18.3682C25.4981 18.0049 25.3897 17.5977 25.0938 17.3428ZM13.0147 18.8721C10.1699 18.8721 7.86427 16.5664 7.86427 13.7217C7.86427 10.877 10.1699 8.57129 13.0147 8.57129C15.8594 8.57129 18.1651 10.877 18.1651 13.7217C18.1651 16.5664 15.8594 18.8721 13.0147 18.8721Z" fill="#A5A8BE"></path></svg>