<svg viewBox="0 0 500 500" width="24px" src="images/icon/TelegramIcon" color="deActive" xmlns="http://www.w3.org/2000/svg" class="sc-bdnxRM eSUQoh" style="cursor: pointer;"><path d="M250,0C111.9,0,0,111.9,0,250s111.9,250,250,250s250-111.9,250-250S388.1,0,250,0z M369.2,162.6 c-0.7,10.1-6.5,45.5-12.3,83.8l-18.1,113.4c0,0-1.4,16.6-13.8,19.5c-12.3,2.9-32.5-10.1-36.1-13c-2.9-2.2-54.2-34.7-73-50.6 c-5.1-4.3-10.8-13,0.7-23.1c26-23.8,57.1-53.5,75.9-72.3c8.7-8.7,17.3-28.9-18.8-4.3l-101.9,68.6c0,0-11.6,7.2-33.2,0.7 c-21.7-6.5-47-15.2-47-15.2s-17.3-10.8,12.3-22.4l0,0l168.4-69.4c16.6-7.2,73-30.3,73-30.3S371.4,138,369.2,162.6z"></path></svg>