<svg viewBox="0 0 500 500" color="deActive" width="24px" src="images/icon/TwitterIcon" xmlns="http://www.w3.org/2000/svg" class="sc-bdnxRM eSUQoh" style="cursor: pointer;"><path d="M250,0C111.93,0,0,111.93,0,250s111.93,250,250,250s250-111.93,250-250S388.07,0,250,0z M366.81,190.1 c0.12,2.58,0.17,5.18,0.17,7.79c0,79.64-60.62,171.47-171.47,171.47c-34.04,0-65.71-9.98-92.38-27.07 c4.72,0.56,9.51,0.83,14.38,0.83c28.24,0,54.22-9.63,74.85-25.8c-26.38-0.49-48.63-17.92-56.3-41.86c3.67,0.7,7.45,1.09,11.33,1.09 c5.5,0,10.83-0.74,15.89-2.12c-27.57-5.53-48.35-29.89-48.35-59.08c0-0.26,0-0.52,0.01-0.77c8.12,4.52,17.41,7.23,27.3,7.54 c-16.18-10.8-26.82-29.26-26.82-50.17c0-11.04,2.98-21.39,8.16-30.29c29.72,36.47,74.14,60.45,124.22,62.97 c-1.03-4.41-1.56-9.01-1.56-13.74c0-33.27,26.99-60.26,60.28-60.26c17.33,0,32.99,7.33,43.99,19.04 c13.73-2.7,26.62-7.73,38.27-14.63c-4.51,14.07-14.06,25.88-26.5,33.34c12.19-1.46,23.81-4.69,34.61-9.49 C388.81,170.98,378.58,181.59,366.81,190.1z"></path></svg>